<mxfile host="app.diagrams.net" modified="2023-03-05T13:20:32.738Z" agent="5.0 (Windows NT 10.0; Win64; x64) AppleWebKit/537.36 (KHTML, like Gecko) Chrome/110.0.0.0 Safari/537.36" etag="92S3wU98O5e9MQNxT7ey" version="21.0.2" type="github">
  <diagram name="Page-1" id="uMvIjXgRAuY_Do9OU61F">
    <mxGraphModel dx="1290" dy="573" grid="1" gridSize="10" guides="1" tooltips="1" connect="1" arrows="1" fold="1" page="1" pageScale="1" pageWidth="850" pageHeight="1100" math="0" shadow="0">
      <root>
        <mxCell id="0" />
        <mxCell id="1" parent="0" />
        <mxCell id="F7b7HEGcV2Cj7xdlzye5-2" style="edgeStyle=orthogonalEdgeStyle;rounded=0;orthogonalLoop=1;jettySize=auto;html=1;exitX=0.5;exitY=1;exitDx=0;exitDy=0;exitPerimeter=0;entryX=0.5;entryY=0;entryDx=0;entryDy=0;" edge="1" parent="1" target="F7b7HEGcV2Cj7xdlzye5-5">
          <mxGeometry relative="1" as="geometry">
            <mxPoint x="210" y="150" as="sourcePoint" />
          </mxGeometry>
        </mxCell>
        <mxCell id="F7b7HEGcV2Cj7xdlzye5-3" style="edgeStyle=orthogonalEdgeStyle;rounded=0;orthogonalLoop=1;jettySize=auto;html=1;exitX=1;exitY=0.5;exitDx=0;exitDy=0;" edge="1" parent="1" source="F7b7HEGcV2Cj7xdlzye5-5" target="F7b7HEGcV2Cj7xdlzye5-7">
          <mxGeometry relative="1" as="geometry" />
        </mxCell>
        <mxCell id="F7b7HEGcV2Cj7xdlzye5-4" value="" style="edgeStyle=orthogonalEdgeStyle;rounded=0;orthogonalLoop=1;jettySize=auto;html=1;" edge="1" parent="1" source="F7b7HEGcV2Cj7xdlzye5-5" target="F7b7HEGcV2Cj7xdlzye5-7">
          <mxGeometry relative="1" as="geometry" />
        </mxCell>
        <mxCell id="F7b7HEGcV2Cj7xdlzye5-5" value="&lt;p class=&quot;MsoNormal&quot;&gt;var&lt;/p&gt;&lt;br/&gt;&lt;br/&gt;&lt;p class=&quot;MsoNormal&quot;&gt;calcular:real&lt;/p&gt;" style="rounded=1;whiteSpace=wrap;html=1;absoluteArcSize=1;arcSize=14;strokeWidth=2;" vertex="1" parent="1">
          <mxGeometry x="160" y="190" width="100" height="100" as="geometry" />
        </mxCell>
        <mxCell id="F7b7HEGcV2Cj7xdlzye5-6" style="edgeStyle=orthogonalEdgeStyle;rounded=0;orthogonalLoop=1;jettySize=auto;html=1;" edge="1" parent="1">
          <mxGeometry relative="1" as="geometry">
            <mxPoint x="488" y="240" as="targetPoint" />
            <mxPoint x="470" y="240" as="sourcePoint" />
          </mxGeometry>
        </mxCell>
        <mxCell id="F7b7HEGcV2Cj7xdlzye5-7" value="&lt;p class=&quot;MsoNormal&quot;&gt;calculo&amp;lt;- base * altura&lt;/p&gt;" style="rounded=1;whiteSpace=wrap;html=1;absoluteArcSize=1;arcSize=14;strokeWidth=2;" vertex="1" parent="1">
          <mxGeometry x="320" y="190" width="150" height="100" as="geometry" />
        </mxCell>
        <mxCell id="F7b7HEGcV2Cj7xdlzye5-8" value="FimAlgoritmo" style="strokeWidth=2;html=1;shape=mxgraph.flowchart.start_1;whiteSpace=wrap;" vertex="1" parent="1">
          <mxGeometry x="670" y="210" width="100" height="60" as="geometry" />
        </mxCell>
        <mxCell id="F7b7HEGcV2Cj7xdlzye5-9" value="Início" style="strokeWidth=2;html=1;shape=mxgraph.flowchart.start_2;whiteSpace=wrap;" vertex="1" parent="1">
          <mxGeometry x="160" y="50" width="100" height="100" as="geometry" />
        </mxCell>
        <mxCell id="F7b7HEGcV2Cj7xdlzye5-10" value="&lt;p class=&quot;MsoNormal&quot;&gt;var&lt;/p&gt;&lt;p class=&quot;MsoNormal&quot;&gt;&lt;span style=&quot;background-color: initial;&quot;&gt;base,altura, calculo,area: real&lt;/span&gt;&lt;br&gt;&lt;/p&gt;" style="rounded=1;whiteSpace=wrap;html=1;absoluteArcSize=1;arcSize=14;strokeWidth=2;" vertex="1" parent="1">
          <mxGeometry x="160" y="190" width="100" height="100" as="geometry" />
        </mxCell>
        <mxCell id="F7b7HEGcV2Cj7xdlzye5-11" style="edgeStyle=orthogonalEdgeStyle;rounded=0;orthogonalLoop=1;jettySize=auto;html=1;exitX=1;exitY=0.5;exitDx=0;exitDy=0;entryX=0;entryY=0.5;entryDx=0;entryDy=0;entryPerimeter=0;" edge="1" parent="1" source="F7b7HEGcV2Cj7xdlzye5-12" target="F7b7HEGcV2Cj7xdlzye5-8">
          <mxGeometry relative="1" as="geometry" />
        </mxCell>
        <mxCell id="F7b7HEGcV2Cj7xdlzye5-12" value="&lt;p class=&quot;MsoNormal&quot;&gt;escreva (&quot;A área do seu circulo é de:&quot;, calculo)&lt;/p&gt;" style="rounded=1;whiteSpace=wrap;html=1;absoluteArcSize=1;arcSize=14;strokeWidth=2;" vertex="1" parent="1">
          <mxGeometry x="490" y="190" width="150" height="100" as="geometry" />
        </mxCell>
      </root>
    </mxGraphModel>
  </diagram>
</mxfile>
